<?xml version="1.0" encoding="utf-8"?>
<!-- Generator: Adobe Illustrator 19.2.1, SVG Export Plug-In . SVG Version: 6.00 Build 0)  -->
<svg version="1.1" id="Ebene_1" xmlns="http://www.w3.org/2000/svg" xmlns:xlink="http://www.w3.org/1999/xlink" x="0px" y="0px"
	 viewBox="0 0 35.1 35.1" style="enable-background:new 0 0 35.1 35.1;" xml:space="preserve">
<style type="text/css">
	.st0{clip-path:url(#SVGID_2_);}
	.st1{fill:#293982;}
	.st2{fill:#FFFFFF;}
</style>
<title>facebook</title>
<g>
	<defs>
		<rect id="SVGID_1_" width="35.1" height="35.1"/>
	</defs>
	<clipPath id="SVGID_2_">
		<use xlink:href="#SVGID_1_"  style="overflow:visible;"/>
	</clipPath>
	<g class="st0">
		<path class="st1" d="M17.5,35.1c9.7,0,17.5-7.9,17.5-17.5S27.2,0,17.5,0S0,7.9,0,17.5S7.9,35.1,17.5,35.1L17.5,35.1"/>
		<path class="st2" d="M21.4,8.8h-2.3c-2.2-0.1-4.1,1.6-4.2,3.8c0,0.2,0,0.4,0,0.5v2h-2.3c-0.2,0-0.4,0.2-0.4,0.4l0,0v2.9
			c0,0.2,0.2,0.4,0.4,0.4l0,0h2.3V26c0,0.2,0.2,0.4,0.4,0.4c0,0,0,0,0,0h3c0.2,0,0.4-0.2,0.4-0.4c0,0,0,0,0,0v-7.3h2.7
			c0.2,0,0.4-0.2,0.4-0.4c0,0,0,0,0,0v-2.9c0-0.2-0.2-0.4-0.4-0.4c0,0,0,0,0,0h-2.7v-1.7c0-0.6,0.5-1.2,1-1.2c0.2,0,0.4,0,0.5,0h1.2
			c0.2,0,0.4-0.2,0.4-0.4l0,0V9.1C21.7,8.9,21.5,8.8,21.4,8.8L21.4,8.8"/>
	</g>
</g>
</svg>
