<svg id="Ebene_1" data-name="Ebene 1" xmlns="http://www.w3.org/2000/svg" xmlns:xlink="http://www.w3.org/1999/xlink" viewBox="0 0 35.1 35.1"><defs><style>.cls-1,.cls-3{fill:none;}.cls-2{clip-path:url(#clip-path);}.cls-3{stroke:#575756;stroke-width:1.5px;}.cls-4{fill:#575756;}</style><clipPath id="clip-path" transform="translate(0 0)"><rect class="cls-1" width="35.09" height="35.09"/></clipPath></defs><title>prices</title><g class="cls-2"><circle class="cls-3" cx="17.55" cy="17.55" r="16.8"/></g><path class="cls-4" d="M28.29,4.5a1.06,1.06,0,0,0-.87-0.58C27.12,4,26.75,4.38,27,4.6c1.38,1.22-1.3,6.11-2.68,7.17l-0.51-.57a1.3,1.3,0,0,0-.93-0.5H19.76a2.12,2.12,0,0,0-1.07.33l-9.2,6.52A1,1,0,0,0,9.24,19l4.18,6a0.83,0.83,0,0,0,1.26.08l9.2-6.52a2.16,2.16,0,0,0,.68-0.91l1-3.11a1.33,1.33,0,0,0-.14-1.05L25.11,13C27,11.59,30,6.73,28.29,4.5ZM23.47,15.2a1.56,1.56,0,0,1-2.19-.39,1.61,1.61,0,0,1,.39-2.22,1.56,1.56,0,0,1,1.83,0c-0.27.16-.45,0.26-0.48,0.27a0.6,0.6,0,0,0-.28.8,0.59,0.59,0,0,0,.54.34A0.58,0.58,0,0,0,23.52,14c0.19-.09.39-0.2,0.61-0.33A1.6,1.6,0,0,1,23.47,15.2Z" transform="translate(0 0)"/></svg>