<?xml version="1.0" encoding="utf-8"?>
<!-- Generator: Adobe Illustrator 19.2.1, SVG Export Plug-In . SVG Version: 6.00 Build 0)  -->
<svg version="1.1" id="logo" xmlns="http://www.w3.org/2000/svg" xmlns:xlink="http://www.w3.org/1999/xlink" x="0px" y="0px"
	 viewBox="0 0 60.8 24.9" style="enable-background:new 0 0 60.8 24.9;" xml:space="preserve">
<style type="text/css">
	.st0{fill:#FFFFFF;}
</style>
<title>L_Atelier_Lightning</title>
<path class="st0" d="M5.8,7.2H2.5L2,9.1H0l3.3-9h1.9l3.2,9h-2L5.8,7.2z M4.2,2.2L4.2,2.2L3.1,5.7h2.3L4.2,2.2z"/>
<path class="st0" d="M8.4,2.9h0.8V1.2h1.7v1.8h0.9v1.3h-0.9v3.1c0,0.3,0.1,0.4,0.6,0.4c0.1,0,0.2,0,0.4,0v1.4c-0.3,0-0.6,0-0.9,0
	c-1.1,0-1.8-0.3-1.8-1.6V4.2H8.4V2.9z"/>
<path class="st0" d="M14.3,6.5c0,0.8,0.6,1.4,1.4,1.4c0.5,0,1-0.3,1.2-0.8l1.7,0.1c-0.4,1.2-1.7,2-3,1.9C14,9.3,12.6,8,12.5,6.4
	c0-0.1,0-0.3,0-0.4c-0.1-1.7,1.2-3.2,3-3.3c1.7-0.1,3.2,1.2,3.3,3c0,0.1,0,0.2,0,0.4v0.5L14.3,6.5L14.3,6.5z M17.1,5.4
	c0-0.8-0.6-1.4-1.4-1.4c-0.8,0-1.4,0.6-1.4,1.4H17.1z"/>
<path class="st0" d="M20,0.1h1.7v9H20C20,9.1,20,0.1,20,0.1z"/>
<path class="st0" d="M24,0c0.6,0,1,0.4,1,1s-0.4,1-1,1s-1-0.4-1-1S23.4,0,24,0z M23.1,2.9h1.7v6.2h-1.8L23.1,2.9L23.1,2.9z"/>
<path class="st0" d="M27.8,6.5c0,0.8,0.6,1.4,1.4,1.4c0.5,0,1-0.3,1.2-0.8l1.7,0.1c-0.4,1.2-1.7,2-3,1.9C27.5,9.3,26.1,8,26,6.4
	c0-0.1,0-0.2,0-0.4c-0.1-1.7,1.2-3.2,3-3.3s3.2,1.2,3.3,3c0,0.1,0,0.2,0,0.4v0.5H27.8z M30.5,5.4c0-0.8-0.6-1.4-1.4-1.4
	c-0.8,0-1.4,0.6-1.4,1.4H30.5z"/>
<path class="st0" d="M33.4,2.9h1.7v1.2l0,0c0.2-0.8,0.9-1.4,1.8-1.4h0.2v1.7h-0.4c-0.8-0.1-1.5,0.6-1.6,1.4c0,0.1,0,0.2,0,0.2v3
	h-1.7V2.9z"/>
<path class="st0" d="M9.2,13.1H11v7.3h3.5v1.7H9.2V13.1L9.2,13.1z"/>
<path class="st0" d="M16.4,13c0.6,0,1,0.4,1,1s-0.4,1-1,1s-1-0.4-1-1S15.8,13,16.4,13z M15.5,15.9h1.7v6.2h-1.7L15.5,15.9L15.5,15.9
	z"/>
<path class="st0" d="M23.3,15.9h1.7V22c0,1.9-1.3,2.9-3.3,2.9c-1.8,0-2.8-0.8-3-2.1h1.8c0.2,0.6,0.7,0.9,1.3,0.8
	c0.8,0.1,1.5-0.5,1.5-1.3c0-0.1,0-0.1,0-0.2V21l0,0c-0.4,0.8-1.2,1.2-2,1.1c-1.7-0.1-2.9-1.5-2.9-3.1c0,0,0-0.1,0-0.1
	c-0.1-1.7,1.2-3.1,2.8-3.2c0.1,0,0.1,0,0.2,0c0.8-0.1,1.6,0.4,1.9,1.1l0,0L23.3,15.9L23.3,15.9z M21.6,17.2c-0.9,0-1.5,0.8-1.5,1.6
	c0,0,0,0.1,0,0.1c-0.1,0.9,0.5,1.7,1.4,1.8c0.1,0,0.1,0,0.2,0c0.8,0,1.5-0.7,1.5-1.5c0-0.1,0-0.2,0-0.3c0.1-0.8-0.4-1.6-1.3-1.8
	C21.9,17.2,21.8,17.2,21.6,17.2z"/>
<path class="st0" d="M30.3,18.3c0.1-0.5-0.3-1.1-0.8-1.1c-0.1,0-0.2,0-0.2,0c-0.7,0.1-1.2,0.6-1.1,1.3c0,0,0,0.1,0,0.1v3.5h-1.7v-9
	H28v3.7l0,0c0.3-0.6,1-1,1.8-1c1.1-0.1,2.1,0.7,2.2,1.8c0,0.1,0,0.2,0,0.3v4.2h-1.7V18.3z"/>
<path class="st0" d="M32.7,15.9h0.8v-1.7h1.7V16h0.9v1.3h-0.9v3.1c0,0.3,0.1,0.4,0.6,0.4c0.1,0,0.2,0,0.3,0v1.4
	c-0.3,0-0.6,0.1-0.8,0.1c-1.1,0-1.8-0.3-1.8-1.6v-3.4h-0.8V15.9z"/>
<path class="st0" d="M41.1,18.3c0.1-0.5-0.3-1.1-0.8-1.1c-0.1,0-0.2,0-0.3,0c-0.7,0.1-1.2,0.6-1.1,1.3c0,0,0,0.1,0,0.1v3.5h-1.7
	v-6.2h1.7v0.8l0,0c0.4-0.6,1.1-1,1.8-1c1.1-0.1,2.1,0.7,2.2,1.8c0,0.1,0,0.2,0,0.3v4.2h-1.7V18.3z"/>
<path class="st0" d="M45.1,13c0.6,0,1,0.4,1,1s-0.4,1-1,1s-1-0.4-1-1S44.6,13,45.1,13z M44.3,15.9H46v6.2h-1.7V15.9L44.3,15.9z"/>
<path class="st0" d="M51.4,18.3c0.1-0.5-0.3-1.1-0.8-1.1c-0.1,0-0.2,0-0.2,0c-0.7,0.1-1.2,0.6-1.1,1.3c0,0,0,0.1,0,0.1v3.5h-1.7
	v-6.2h1.7v0.8l0,0c0.4-0.6,1.1-1,1.8-1c1.1-0.1,2.1,0.7,2.2,1.8c0,0.1,0,0.2,0,0.3v4.2h-1.7V18.3z"/>
<path class="st0" d="M59.2,15.9h1.7V22c0,1.9-1.3,2.9-3.3,2.9c-1.8,0-2.8-0.8-3-2.1h1.8c0.2,0.6,0.7,0.9,1.3,0.8
	c0.8,0.1,1.5-0.5,1.5-1.3c0-0.1,0-0.1,0-0.2V21l0,0c-0.4,0.8-1.2,1.2-2,1.1c-1.7-0.1-2.9-1.5-2.9-3.1c0,0,0-0.1,0-0.1
	c-0.1-1.7,1.2-3.1,2.8-3.2c0.1,0,0.1,0,0.2,0c0.8-0.1,1.6,0.4,1.9,1.1l0,0L59.2,15.9L59.2,15.9z M57.6,17.2c-0.9,0-1.5,0.8-1.5,1.6
	c0,0,0,0.1,0,0.1c-0.1,0.9,0.5,1.7,1.4,1.8c0.1,0,0.1,0,0.2,0c0.8,0,1.5-0.7,1.5-1.5c0-0.1,0-0.2,0-0.3c0.1-0.8-0.4-1.6-1.3-1.8
	C57.8,17.2,57.7,17.2,57.6,17.2z"/>
</svg>
