<svg id="logo" xmlns="http://www.w3.org/2000/svg" viewBox="0 0 60.83 24.9"><defs><style>.cls-1{fill:#283982;}</style></defs><title>L_Atelier_Lightning</title><path class="cls-1" d="M21.85,20h-3.3L18,21.91H16l3.29-9h1.9l3.24,9h-2Zm-1.63-5h0l-1.14,3.5h2.31Z" transform="translate(-16.02 -12.82)"/><path class="cls-1" d="M24.42,15.74h0.79V14h1.73v1.77h0.91v1.32H26.94v3.12c0,0.28.12,0.41,0.56,0.41a1.45,1.45,0,0,0,.35,0v1.36A6.4,6.4,0,0,1,27,22c-1.13,0-1.81-.28-1.81-1.61V17.06H24.42V15.74Z" transform="translate(-16.02 -12.82)"/><path class="cls-1" d="M30.32,19.32a1.45,1.45,0,0,0,1.44,1.44A1.33,1.33,0,0,0,33,20l1.68,0.13a2.91,2.91,0,0,1-3,1.92,3,3,0,0,1-3.15-3.24,3.16,3.16,0,1,1,6.31,0v0.48H30.32Zm2.78-1.1a1.39,1.39,0,0,0-2.78,0H33.1Z" transform="translate(-16.02 -12.82)"/><path class="cls-1" d="M36,12.89h1.73v9H36v-9Z" transform="translate(-16.02 -12.82)"/><path class="cls-1" d="M40,12.82a1,1,0,0,1,1,1A1,1,0,1,1,40,12.82Zm-0.86,2.93h1.73v6.16H39.12V15.74Z" transform="translate(-16.02 -12.82)"/><path class="cls-1" d="M43.77,19.32a1.45,1.45,0,0,0,1.44,1.44A1.33,1.33,0,0,0,46.45,20l1.68,0.13a2.91,2.91,0,0,1-3,1.92A3,3,0,0,1,42,18.84a3.16,3.16,0,1,1,6.31,0v0.48H43.77Zm2.78-1.1a1.39,1.39,0,0,0-2.78,0h2.78Z" transform="translate(-16.02 -12.82)"/><path class="cls-1" d="M49.44,15.74h1.65v1.19h0a1.86,1.86,0,0,1,1.78-1.36h0.24v1.68H52.75a1.49,1.49,0,0,0-1.58,1.63v3H49.44V15.74Z" transform="translate(-16.02 -12.82)"/><path class="cls-1" d="M25.21,25.89H27v7.34h3.47v1.68H25.21v-9Z" transform="translate(-16.02 -12.82)"/><path class="cls-1" d="M32.38,25.82a1,1,0,0,1,1,1A1,1,0,1,1,32.38,25.82Zm-0.86,2.93h1.73v6.16H31.51V28.74Z" transform="translate(-16.02 -12.82)"/><path class="cls-1" d="M39.28,28.74h1.65v6.07c0,1.86-1.34,2.9-3.31,2.9-1.77,0-2.77-.8-3-2.1H36.4a1.1,1.1,0,0,0,1.27.78,1.42,1.42,0,0,0,1.55-1.49l0-1.06,0,0a2,2,0,0,1-2,1.14,3,3,0,0,1-2.88-3.21,3,3,0,0,1,3-3.18,2,2,0,0,1,1.93,1.14h0v-1ZM37.67,30a1.56,1.56,0,0,0-1.5,1.71,1.6,1.6,0,0,0,1.56,1.82,1.52,1.52,0,0,0,1.52-1.76A1.53,1.53,0,0,0,37.67,30Z" transform="translate(-16.02 -12.82)"/><path class="cls-1" d="M46.27,31.15A1,1,0,0,0,45.19,30a1.24,1.24,0,0,0-1.13,1.44v3.5H42.34v-9h1.73v3.66h0a1.93,1.93,0,0,1,1.75-1A2,2,0,0,1,48,30.72v4.19H46.27V31.15Z" transform="translate(-16.02 -12.82)"/><path class="cls-1" d="M48.75,28.74h0.79V27h1.73v1.78h0.91v1.32H51.26v3.12c0,0.28.12,0.41,0.56,0.41a1.46,1.46,0,0,0,.35,0v1.36a6.4,6.4,0,0,1-.83.07c-1.13,0-1.81-.28-1.81-1.61V30.06H48.75V28.74Z" transform="translate(-16.02 -12.82)"/><path class="cls-1" d="M57.11,31.15A1,1,0,0,0,56,30a1.24,1.24,0,0,0-1.13,1.44v3.5H53.17V28.74h1.66v0.8h0a2.05,2.05,0,0,1,1.82-1,2,2,0,0,1,2.16,2.15v4.19H57.11V31.15Z" transform="translate(-16.02 -12.82)"/><path class="cls-1" d="M61.15,25.82a1,1,0,0,1,1,1A1,1,0,1,1,61.15,25.82Zm-0.86,2.93H62v6.16H60.29V28.74Z" transform="translate(-16.02 -12.82)"/><path class="cls-1" d="M67.4,31.15A1,1,0,0,0,66.32,30a1.24,1.24,0,0,0-1.13,1.44v3.5H63.47V28.74h1.66v0.8h0a2.05,2.05,0,0,1,1.82-1,2,2,0,0,1,2.16,2.15v4.19H67.4V31.15Z" transform="translate(-16.02 -12.82)"/><path class="cls-1" d="M75.19,28.74h1.65v6.07c0,1.86-1.34,2.9-3.31,2.9-1.78,0-2.77-.8-3-2.1h1.78a1.1,1.1,0,0,0,1.27.78,1.42,1.42,0,0,0,1.55-1.49l0-1.06,0,0a2,2,0,0,1-2,1.14,3,3,0,0,1-2.88-3.21,3,3,0,0,1,3-3.18,2,2,0,0,1,1.93,1.14h0v-1ZM73.58,30a1.56,1.56,0,0,0-1.5,1.71,1.6,1.6,0,0,0,1.56,1.82,1.52,1.52,0,0,0,1.52-1.76A1.53,1.53,0,0,0,73.58,30Z" transform="translate(-16.02 -12.82)"/></svg>