<svg id="Ebene_1" data-name="Ebene 1" xmlns="http://www.w3.org/2000/svg" viewBox="0 0 76.8 80"><defs><style>.cls-1{font-size:20.54px;fill:#fff;font-family:Raleway;}</style></defs><title>price-chf</title><path d="M56.57-18.38a2.38,2.38,0,0,0-3-1.48,2.43,2.43,0,0,0-1.47,3.08C55.73-6.11,48.43,1.87,42.86,6.14L40.61,2.88a5.25,5.25,0,0,0-3.76-2l-12.62.06a8.56,8.56,0,0,0-4.34,1.35L-17.3,28.63a4.07,4.07,0,0,0-1,5.61l16.9,24.43c1.26,1.82,3.29,1.61,5.09.33L40.9,32.65A8.75,8.75,0,0,0,43.64,29l4-12.59A5.39,5.39,0,0,0,47,12.13l-1.37-2c7.48-5.78,15.24-16,10.94-28.52h0ZM39.26,19a6.32,6.32,0,0,1-8.87-1.59,6.49,6.49,0,0,1,1.57-9,6.3,6.3,0,0,1,7.4.07c-1.07.66-1.81,1-2,1.1a2.43,2.43,0,0,0-1.14,3.21,2.4,2.4,0,0,0,2.16,1.39,2.33,2.33,0,0,0,1-.23c0.76-.36,1.59-0.8,2.45-1.32A6.48,6.48,0,0,1,39.26,19h0Zm0,0" transform="translate(19 20)"/><text class="cls-1" transform="matrix(0.81, -0.58, 0.58, 0.81, 16.86, 68.85)">CH<tspan x="29.23" y="0">F</tspan></text></svg>